<svg width="842" height="856" xmlns="http://www.w3.org/2000/svg" xmlns:xlink="http://www.w3.org/1999/xlink" xml:space="preserve" overflow="hidden"><g transform="translate(-2247 -116)"><path d="M2250.5 163.811C2250.5 147.623 2263.62 134.5 2279.81 134.5L2610.19 134.5C2626.38 134.5 2639.5 147.623 2639.5 163.811L2639.5 495.189C2639.5 511.377 2626.38 524.5 2610.19 524.5L2279.81 524.5C2263.62 524.5 2250.5 511.377 2250.5 495.189Z" stroke="#000000" stroke-width="6.875" stroke-miterlimit="8" fill-rule="evenodd"/><path d="M2250.5 608.811C2250.5 592.623 2263.62 579.5 2279.81 579.5L2610.19 579.5C2626.38 579.5 2639.5 592.623 2639.5 608.811L2639.5 939.189C2639.5 955.377 2626.38 968.5 2610.19 968.5L2279.81 968.5C2263.62 968.5 2250.5 955.377 2250.5 939.189Z" stroke="#000000" stroke-width="6.875" stroke-miterlimit="8" fill-rule="evenodd"/><path d="M2695.5 608.811C2695.5 592.623 2708.62 579.5 2724.81 579.5L3056.19 579.5C3072.38 579.5 3085.5 592.623 3085.5 608.811L3085.5 939.189C3085.5 955.377 3072.38 968.5 3056.19 968.5L2724.81 968.5C2708.62 968.5 2695.5 955.377 2695.5 939.189Z" stroke="#000000" stroke-width="6.875" stroke-miterlimit="8" fill-rule="evenodd"/><path d="M2695.5 314.5C2695.5 206.805 2782.8 119.5 2890.5 119.5 2998.2 119.5 3085.5 206.805 3085.5 314.5 3085.5 422.195 2998.2 509.5 2890.5 509.5 2782.8 509.5 2695.5 422.195 2695.5 314.5Z" stroke="#000000" stroke-width="6.875" stroke-miterlimit="8" fill-rule="evenodd"/></g></svg>