<svg width="96" height="96" xmlns="http://www.w3.org/2000/svg" xmlns:xlink="http://www.w3.org/1999/xlink" xml:space="preserve" overflow="hidden"><g transform="translate(-753 -400)"><path d="M817 430C817 438.837 809.837 446 801 446 792.163 446 785 438.837 785 430 785 421.163 792.163 414 801 414 809.837 414 817 421.163 817 430Z"/><path d="M833 482 833 466C833 463.6 831.8 461.2 829.8 459.6 825.4 456 819.8 453.6 814.2 452 810.2 450.8 805.8 450 801 450 796.6 450 792.2 450.8 787.8 452 782.2 453.6 776.6 456.4 772.2 459.6 770.2 461.2 769 463.6 769 466L769 482 833 482Z"/></g></svg>