<svg width="96" height="96" xmlns="http://www.w3.org/2000/svg" xmlns:xlink="http://www.w3.org/1999/xlink" xml:space="preserve" overflow="hidden"><g transform="translate(-53 -184)"><path d="M117 214C117 222.837 109.837 230 101 230 92.1634 230 85 222.837 85 214 85 205.163 92.1634 198 101 198 109.837 198 117 205.163 117 214Z"/><path d="M133 266 133 250C133 247.6 131.8 245.2 129.8 243.6 125.4 240 119.8 237.6 114.2 236 110.2 234.8 105.8 234 101 234 96.6 234 92.2 234.8 87.8 236 82.2 237.6 76.6 240.4 72.2 243.6 70.2 245.2 69 247.6 69 250L69 266 133 266Z"/></g></svg>