<svg width="397" height="397" xmlns="http://www.w3.org/2000/svg" xmlns:xlink="http://www.w3.org/1999/xlink" xml:space="preserve" overflow="hidden"><g transform="translate(-2549 -1343)"><path d="M2552.5 1375.89C2552.5 1359.66 2565.66 1346.5 2581.89 1346.5L2913.11 1346.5C2929.34 1346.5 2942.5 1359.66 2942.5 1375.89L2942.5 1707.11C2942.5 1723.34 2929.34 1736.5 2913.11 1736.5L2581.89 1736.5C2565.66 1736.5 2552.5 1723.34 2552.5 1707.11Z" stroke="#000000" stroke-width="6.875" stroke-miterlimit="8" fill-rule="evenodd"/><g><g><g><path d="M2809 1479.12C2809 1509.5 2784.38 1534.12 2754 1534.12 2723.62 1534.12 2699 1509.5 2699 1479.12 2699 1448.75 2723.62 1424.12 2754 1424.12 2784.38 1424.12 2809 1448.75 2809 1479.12Z" fill="#FFFFFF"/><path d="M2864 1657.88 2864 1602.88C2864 1594.62 2859.88 1586.38 2853 1580.88 2837.88 1568.5 2818.63 1560.25 2799.38 1554.75 2785.63 1550.62 2770.5 1547.88 2754 1547.88 2738.88 1547.88 2723.75 1550.62 2708.63 1554.75 2689.38 1560.25 2670.13 1569.88 2655 1580.88 2648.13 1586.38 2644 1594.62 2644 1602.88L2644 1657.88 2864 1657.88Z" fill="#FFFFFF"/></g></g></g></g></svg>