<svg width="96" height="96" xmlns="http://www.w3.org/2000/svg" xmlns:xlink="http://www.w3.org/1999/xlink" xml:space="preserve" overflow="hidden"><g transform="translate(-445 -31)"><path d="M509.5 82.5 516 89 522.5 82.5 529 89 537 79 529 69 488.5 69C484.9 62.4 478 58 470 58 458.4 58 449 67.4 449 79 449 90.6 458.4 100 470 100 478 100 484.9 95.6 488.5 89L495 89 499 85 503 89 509.5 82.5ZM461 85C457.7 85 455 82.3 455 79 455 75.7 457.7 73 461 73 464.3 73 467 75.7 467 79 467 82.3 464.3 85 461 85Z"/></g></svg>