<svg width="96" height="96" xmlns="http://www.w3.org/2000/svg" xmlns:xlink="http://www.w3.org/1999/xlink" xml:space="preserve" overflow="hidden"><g transform="translate(-117 -307)"><path d="M163 329C163 332.314 160.314 335 157 335 153.686 335 151 332.314 151 329 151 325.686 153.686 323 157 323 160.314 323 163 325.686 163 329Z"/><path d="M157 314C157 315.657 155.657 317 154 317 152.343 317 151 315.657 151 314 151 312.343 152.343 311 154 311 155.657 311 157 312.343 157 314Z"/><path d="M174 332C174 333.657 172.657 335 171 335 169.343 335 168 333.657 168 332 168 330.343 169.343 329 171 329 172.657 329 174 330.343 174 332Z"/><path d="M177 319C177 321.209 175.209 323 173 323 170.791 323 169 321.209 169 319 169 316.791 170.791 315 173 315 175.209 315 177 316.791 177 319Z"/><path d="M192.9 339.5C192.7 338.6 191.9 338 191 338L139 338C138.1 338 137.3 338.6 137.1 339.5 136.9 340.4 137.3 341.3 138.1 341.7 138.1 341.7 141.1 343.4 141.1 347L141.1 393C141.1 396.3 143.8 399 147.1 399L183.1 399C186.4 399 189.1 396.3 189.1 393L189.1 347C189.1 343.4 191.9 341.8 192 341.8 192.7 341.3 193.2 340.4 192.9 339.5ZM179 391 167 391 167 387 179 387 179 391ZM179 383 167 383 167 379 179 379 179 383ZM179 375 167 375 167 371 179 371 179 375ZM179 367 167 367 167 363 179 363 179 367ZM179 359 167 359 167 355 179 355 179 359ZM185 347 185 348.9C181.9 347.7 176.9 346 172 346 166.6 346 163.3 346.9 159.9 347.8 156.2 348.8 152.3 349.8 145 350L145 347C145 345 144.4 343.3 143.7 342L186.3 342C185.6 343.3 185 345 185 347Z"/></g></svg>