<svg width="322" height="311" xmlns="http://www.w3.org/2000/svg" xmlns:xlink="http://www.w3.org/1999/xlink" xml:space="preserve" overflow="hidden"><defs><clipPath id="clip0"><rect x="297" y="105" width="322" height="311"/></clipPath></defs><g clip-path="url(#clip0)" transform="translate(-297 -105)"><path d="M304.139 149.64C300.027 146.101 288.731 136.728 270.821 144.736 254.348 152.106 241.722 156.495 241.722 156.495 241.722 156.495 221.687 165.791 195.122 147.695L142.965 108.301 136.85 103.806C128.745 97.0733 129.547 107.439 129.547 107.439 130.04 131.444 126.797 151.121 125.612 157.458 133.253 159.033 138.901 165.859 138.669 173.919 138.518 179.296 135.749 183.955 131.653 186.824L129.048 202.802C136.976 203.414 143.19 204.773 148.304 207.313 172.92 219.536 188.261 219.968 188.261 219.968 188.261 219.968 204.264 225.683 242.63 198.487L303.875 152.483C303.875 152.48 305.678 150.966 304.139 149.64ZM131.054 172.914C130.429 166.899 125.055 162.529 119.047 163.154 118.374 163.222 117.704 163.36 117.073 163.531L116.554 162.053 90.4498 130.661 83.2724 123.204C83.2724 123.204 31.2823 134.583 22.8652 136.328 20.3729 136.85 19.8674 138.817 19.8674 138.817L18.779 144.156C18.779 144.156 13.8653 173.587 21.5869 191.696 21.5869 191.696 22.2727 194.314 23.9536 198.233 25.6602 202.174 30.7188 213.512 47.8492 209.252 47.8492 209.252 57.1647 207.629 72.6271 204.222 89.0298 201.53 109.525 199.209 121.008 201.971L123.777 184.393 123.767 184.393 123.777 184.316 123.783 184.374C128.472 182.738 131.601 178.066 131.054 172.914Z" transform="matrix(1 0 0 1.00112 297 93.9592)"/><text font-family="Arial,Arial_MSFontService,sans-serif" font-weight="700" font-size="5" transform="matrix(3.22 0 0 3.22359 297 465)">Created by Guvnor Co</text><text font-family="Arial,Arial_MSFontService,sans-serif" font-weight="700" font-size="5" transform="matrix(3.22 0 0 3.22359 297 481)">from the Noun Project</text></g></svg>