<svg width="1098" height="1055" xmlns="http://www.w3.org/2000/svg" xmlns:xlink="http://www.w3.org/1999/xlink" xml:space="preserve" overflow="hidden"><defs><clipPath id="clip0"><rect x="1572" y="417" width="1098" height="1055"/></clipPath></defs><g clip-path="url(#clip0)" transform="translate(-1572 -417)"><path d="M1572 1169C1572 1088.92 1636.92 1024 1717 1024L1717 1024C1797.08 1024 1862 1088.92 1862 1169L1862 1320C1862 1400.08 1797.08 1465 1717 1465L1717 1465C1636.92 1465 1572 1400.08 1572 1320Z" fill-rule="evenodd"/><path d="M1971 892C1971 811.919 2035.92 747 2116 747L2116 747C2196.08 747 2261 811.919 2261 892L2261 1320C2261 1400.08 2196.08 1465 2116 1465L2116 1465C2035.92 1465 1971 1400.08 1971 1320Z" fill-rule="evenodd"/><path d="M2379 562C2379 481.919 2443.92 417 2524 417L2524 417C2604.08 417 2669 481.919 2669 562L2669 1326C2669 1406.08 2604.08 1471 2524 1471L2524 1471C2443.92 1471 2379 1406.08 2379 1326Z" fill-rule="evenodd"/></g></svg>