<svg width="347" height="415" xmlns="http://www.w3.org/2000/svg" xmlns:xlink="http://www.w3.org/1999/xlink" xml:space="preserve" overflow="hidden"><g transform="translate(-1429 -702)"><g><g><g><path d="M1549.24 870.826 1602.4 923.986 1655.56 870.826 1659.18 867.212 1654.07 862.101 1650.45 865.715 1606.08 910.088C1606.06 910.102 1606.04 910.102 1606.03 910.088 1606.02 910.081 1606.02 910.072 1606.02 910.063L1606.02 767.062 1598.79 767.062 1598.79 910.063C1598.79 910.083 1598.77 910.099 1598.75 910.099 1598.74 910.098 1598.73 910.094 1598.73 910.088L1554.35 865.715 1550.74 862.101 1545.63 867.212Z"/><path d="M1700.09 976.708 1504.91 976.708 1504.91 904.417 1497.68 904.417 1497.68 983.938 1707.32 983.938 1707.32 904.417 1700.09 904.417 1700.09 976.708Z"/></g></g></g><text font-family="Arial,Arial_MSFontService,sans-serif" font-weight="400" font-size="46" transform="matrix(1 0 0 1 1480.98 1059)">TEMPLATE</text></g></svg>