<svg width="98" height="98" xmlns="http://www.w3.org/2000/svg" xmlns:xlink="http://www.w3.org/1999/xlink" xml:space="preserve" overflow="hidden"><g transform="translate(-125 -36)"><path d="M157.368 79.661 155.924 78.2166 142.982 91.1597C142.978 91.1637 142.972 91.1637 142.968 91.1597 142.966 91.1581 142.965 91.1559 142.965 91.1536 139.554 74.0122 150.684 57.3511 167.826 53.9402 182.127 51.0945 196.522 58.3889 202.683 71.6046L204.533 70.74C196.693 53.8717 176.663 46.5528 159.795 54.3926 146.258 60.6842 138.478 75.1356 140.678 89.9 140.68 89.9048 140.677 89.91 140.673 89.9118 140.668 89.9133 140.664 89.9117 140.662 89.9082L128.972 78.2166 127.529 79.661 142.448 94.5805Z" stroke="#000000" stroke-width="1.36111"/><path d="M190.632 92.4153 192.076 93.8588 205.306 80.6288C205.31 80.6248 205.316 80.6248 205.32 80.6288 205.322 80.6304 205.323 80.6326 205.323 80.6349 207.808 97.8603 195.858 113.839 178.633 116.323 177.099 116.545 175.55 116.652 174 116.646 162.284 116.657 151.523 110.187 146.038 99.8337L144.236 100.791C152.949 117.23 173.339 123.492 189.777 114.778 200.801 108.935 207.693 97.4769 207.688 85 207.688 84.1456 207.648 83.2901 207.585 82.4377 207.585 82.4321 207.59 82.4275 207.596 82.4275 207.598 82.4275 207.6 82.4282 207.602 82.4295L219.03 93.8629 220.473 92.4194 205.552 77.4948Z" stroke="#000000" stroke-width="1.36111"/></g></svg>