<svg width="96" height="96" xmlns="http://www.w3.org/2000/svg" xmlns:xlink="http://www.w3.org/1999/xlink" xml:space="preserve" overflow="hidden"><g transform="translate(-616 -278)"><path d="M656.239 343.055C644.1 328.667 622.577 329.888 621 330L621 332 621.076 332C621.291 331.984 643.019 330.519 654.722 344.361 655.261 343.961 655.822 343.591 656.389 343.227 656.34 343.169 656.286 343.106 656.239 343.055Z" stroke="#000000" stroke-width="0.666667"/><path d="M660.323 331.12C666.615 331.308 672.7 333.409 677.768 337.143 678.178 337.133 678.587 337.12 679 337.12 679.283 337.12 680.1 337.136 681.05 337.169L680.05 336.34C674.445 331.856 667.532 329.322 660.358 329.12 655.583 329.105 650.862 330.138 646.53 332.147 646.364 332.226 646.03 332.4 645.62 332.62 646.369 332.972 647.115 333.347 647.855 333.753 651.783 332.019 656.029 331.122 660.323 331.12Z" stroke="#000000" stroke-width="0.666667"/><path d="M700.686 344.966C700.454 344.828 700.225 344.695 700 344.566L700 333.915C700.337 333.864 700.671 333.792 701 333.7 704.389 332.527 706.618 329.284 706.5 325.7 706.5 320.7 700.62 309.52 699 309.52 697.38 309.52 691.5 320.74 691.5 325.7 691.382 329.284 693.611 332.527 697 333.7 697.329 333.792 697.663 333.864 698 333.915L698 343.471C697.675 343.301 697.461 343.193 697.432 343.178 695.147 342.098 692.771 341.222 690.332 340.558 688.25 340.02 686.134 339.618 684 339.353L684 319.932C684.573 319.861 685 319.76 685 319.76 689.64 318.76 693.14 314.06 693.14 307.51 693.14 300.05 685.43 284 683 284 680.57 284 672.86 300.05 672.86 307.51 672.86 314.06 676.36 318.72 681 319.76 681 319.76 681.427 319.86 682 319.932L682 339.208C680.627 339.145 679.276 339.12 679 339.12 669.561 339.12 660.669 341.984 654.624 346.962 653.703 347.652 645.147 353.74 628.732 355.02L621 355 621 357 628.808 357.017C645.865 355.69 654.854 349.289 655.876 348.522 661.588 343.822 670.017 341.122 679 341.122 679.346 341.122 681.645 341.167 683.264 341.287 685.476 341.529 687.668 341.932 689.821 342.494 692.132 343.123 694.384 343.953 696.55 344.975 696.565 344.983 698.107 345.761 699.664 346.687 702.002 348.293 704.23 350.053 706.333 351.957L707 352.557 707 349.877C705.015 348.091 702.905 346.45 700.686 344.966ZM682.032 299 682.032 307.118 678.669 303.755 677.255 305.169 682.032 309.946 682.032 317.918C681.698 317.868 681.455 317.818 681.437 317.808 677.503 316.927 674.86 312.788 674.86 307.508 674.86 301.491 680.501 289.262 683 286.386 685.5 289.262 691.14 301.486 691.14 307.508 691.14 312.82 688.503 316.957 684.54 317.808 684.54 317.808 684.331 317.857 684.034 317.903L684.034 314.003 689.453 308.584 688.039 307.17 684.034 311.175 684.034 299ZM699 332C698.529 331.986 698.062 331.917 697.608 331.794 695.067 330.901 693.402 328.458 693.5 325.766L693.5 325.7C693.5 322.283 697.081 314.8 699 312.157 700.883 314.741 704.5 322.057 704.5 325.7L704.5 325.766C704.599 328.458 702.935 330.901 700.393 331.793 699.938 331.917 699.471 331.987 699 332Z" stroke="#000000" stroke-width="0.666667"/><path d="M646.921 309.554C647.39 310.295 647.753 311.098 648 311.94 647.993 312.537 647.503 313.015 646.906 313.008 646.332 313.001 645.863 312.546 645.839 311.972 646.082 311.118 646.446 310.304 646.921 309.554ZM646.648 306.185C645.894 307.322 643.84 310.552 643.84 311.94 643.84 313.641 645.219 315.02 646.92 315.02 648.621 315.02 650 313.641 650 311.94 650 310.24 646.92 305.78 646.92 305.78 646.92 305.78 646.817 305.93 646.648 306.185Z" stroke="#000000" stroke-width="0.666667"/><path d="M657.56 310.18C657.56 311.395 656.575 312.38 655.36 312.38 654.145 312.38 653.16 311.395 653.16 310.18 653.16 308.97 655.36 305.78 655.36 305.78 655.36 305.78 657.56 309 657.56 310.18Z" stroke="#000000" stroke-width="0.666667"/><path d="M640.6 310.18C640.683 311.392 639.767 312.442 638.555 312.525 637.343 312.608 636.293 311.692 636.21 310.48 636.203 310.38 636.203 310.28 636.21 310.18 636.21 308.97 638.4 305.78 638.4 305.78 638.4 305.78 640.6 309 640.6 310.18Z" stroke="#000000" stroke-width="0.666667"/><path d="M636.77 304C636.448 303.986 636.128 303.948 635.812 303.885 634.638 303.66 633.555 303.098 632.694 302.268 630.19 299.863 630.109 295.883 632.515 293.379 633.732 292.111 635.425 291.41 637.183 291.448 637.863 287.429 641.672 284.722 645.69 285.402 647.664 285.736 649.417 286.857 650.548 288.508 650.936 288.433 651.329 288.396 651.724 288.395L651.731 288.395C652.724 288.38 653.706 288.611 654.589 289.067 656.363 289.989 657.599 291.694 657.922 293.667 660.682 293.797 662.85 296.077 662.84 298.84L662.84 298.84C662.832 301.589 660.678 303.854 657.933 304ZM637.042 293.446C634.677 293.448 632.76 295.367 632.762 297.732 632.763 298.822 633.179 299.87 633.925 300.663 634.435 301.211 635.082 301.613 635.8 301.825 636.132 301.924 636.476 301.983 636.822 302L657.88 302C659.545 301.889 660.839 300.506 660.84 298.837L660.84 298.837C660.848 298.326 660.729 297.822 660.493 297.369 659.946 296.328 658.869 295.674 657.693 295.669 657.517 295.672 657.341 295.687 657.167 295.712L656.013 295.905C656.007 295.907 656.001 295.903 656 295.897 655.999 295.895 655.999 295.892 656 295.89L656 294.72C656.017 293.209 655.239 291.8 653.951 291.009 653.283 290.6 652.513 290.389 651.73 290.4L651.73 290.4C651.276 290.4 650.825 290.473 650.394 290.615L649.604 290.876C649.599 290.877 649.595 290.875 649.592 290.871L649.199 290.139C647.794 287.521 644.532 286.538 641.914 287.943 640.204 288.861 639.121 290.629 639.08 292.57L639.057 293.753C639.057 293.759 639.053 293.763 639.047 293.763 639.047 293.763 639.046 293.763 639.045 293.763L637.884 293.53C637.607 293.475 637.325 293.447 637.042 293.446Z" stroke="#000000" stroke-width="0.666667"/></g></svg>