<svg width="1590" height="1589" xmlns="http://www.w3.org/2000/svg" xmlns:xlink="http://www.w3.org/1999/xlink" xml:space="preserve" overflow="hidden"><g transform="translate(-1408 -443)"><path d="M2548.6 791.469C2535.19 778.058 2515.07 768 2498.31 768 2478.19 768 2458.08 778.058 2444.67 791.469 1428.82 1807.36 1428.82 1807.36 1428.82 1807.36 1402 1834.19 1402 1881.12 1428.82 1907.95 1532.75 2008.53 1532.75 2008.53 1532.75 2008.53 1546.16 2021.94 1562.93 2032 1583.04 2032 1603.16 2032 1619.92 2021.94 1633.33 2008.53 2649.18 992.637 2649.18 992.637 2649.18 992.637 2676 965.814 2676 918.875 2649.18 892.053L2548.6 791.469ZM2253.57 1083.16C2498.31 841.761 2498.31 841.761 2498.31 841.761 2598.89 942.345 2598.89 942.345 2598.89 942.345 1583.04 1958.24 1583.04 1958.24 1583.04 1958.24 1482.46 1857.66 1482.46 1857.66 1482.46 1857.66L2253.57 1083.16Z" fill-rule="evenodd"/><path d="M2354.16 1186.09 2367 1173.35 2267.11 1070 2252.84 1082.74 2240 1096.9 2344.17 1196 2354.16 1186.09Z" fill-rule="evenodd"/><path d="M2240.3 691.2 2253 676.978 2152.81 576 2140.11 590.222 2126 603.022 2226.19 704 2240.3 691.2Z" fill-rule="evenodd"/><path d="M2135 945 2135 928 1992 928 1992 945 1992 962 2135 962 2135 945Z" fill-rule="evenodd"/><path d="M2475 1304 2475 1449 2494.38 1449 2511 1449 2511 1304 2494.38 1304 2475 1304Z" fill-rule="evenodd"/><path d="M2750.11 1200.22 2736 1210.18 2836.19 1314 2850.3 1301.2 2863 1286.98 2759.99 1186 2750.11 1200.22Z" fill-rule="evenodd"/><path d="M2853 928 2853 945 2853 962 2998 962 2998 945 2998 928 2853 928Z" fill-rule="evenodd"/><path d="M2759.99 704 2863 603.022 2850.3 590.222 2836.19 576 2736 676.978 2750.11 691.2 2759.99 704Z" fill-rule="evenodd"/><path d="M2511 588 2511 443 2494.38 443 2475 443 2475 588 2494.38 588 2511 588Z" fill-rule="evenodd"/></g></svg>